# xmcd
#
# Track frame offsets:
# 150
# 22482
# 48176
# 75478
#
# Disc length: 1360 seconds
#
# Revision: 0
# Processed by: cddbd v1.4b42PL0 Copyright (c) Steve Scherf et al.
# Submitted via: Audion 2.5.0 (http://www.panic.com/audion/)
#
DISCID=29054e04
DTITLE=ben productions - remixes
DYEAR=1900
DGENRE=
TTITLE0=funkytown
TTITLE1=japanese boy
TTITLE2=who´s leaving who
TTITLE3=living in a box
EXTD=
EXTT0=
EXTT1=
EXTT2=
EXTT3=
PLAYORDER=
